<?xml version="1.0" encoding="utf-8"?>
<!-- Generator: Adobe Illustrator 16.0.4, SVG Export Plug-In . SVG Version: 6.00 Build 0)  -->
<!DOCTYPE svg PUBLIC "-//W3C//DTD SVG 1.0//EN" "http://www.w3.org/TR/2001/REC-SVG-20010904/DTD/svg10.dtd">
<svg version="1.0" id="Layer_1" xmlns="http://www.w3.org/2000/svg" xmlns:xlink="http://www.w3.org/1999/xlink" x="0px" y="0px"
	 width="402.581px" height="110.48px" viewBox="0 0 402.581 110.48" enable-background="new 0 0 402.581 110.48"
	 xml:space="preserve">
<g>
	<g>
		<path fill="#4D4D4D" d="M140.976,82.622V15.015h24.871c4.671,0,8.646,0.434,11.926,1.299c3.278,0.866,5.954,2.088,8.027,3.666
			c2.072,1.577,3.58,3.496,4.524,5.754c0.943,2.259,1.415,4.779,1.415,7.563c0,1.516-0.217,2.978-0.649,4.385
			c-0.434,1.408-1.114,2.73-2.042,3.968s-2.119,2.358-3.573,3.364c-1.454,1.005-3.201,1.879-5.243,2.621
			c4.455,1.083,7.749,2.839,9.884,5.267c2.135,2.429,3.202,5.545,3.202,9.351c0,2.877-0.558,5.553-1.671,8.027
			s-2.746,4.633-4.896,6.473c-2.15,1.841-4.803,3.279-7.958,4.315c-3.155,1.037-6.76,1.555-10.812,1.555H140.976z M156.659,43.459
			h8.167c1.732,0,3.295-0.123,4.687-0.371s2.575-0.681,3.55-1.3c0.975-0.618,1.717-1.469,2.228-2.552
			c0.51-1.083,0.766-2.443,0.766-4.084c0-1.607-0.202-2.946-0.604-4.014c-0.402-1.066-1.021-1.926-1.856-2.575
			c-0.835-0.649-1.895-1.113-3.178-1.392c-1.284-0.278-2.808-0.418-4.571-0.418h-9.188V43.459z M156.659,53.945v16.844h11.044
			c2.072,0,3.766-0.262,5.081-0.788c1.314-0.526,2.343-1.207,3.086-2.042c0.742-0.835,1.253-1.778,1.531-2.83
			s0.417-2.119,0.417-3.202c0-1.237-0.162-2.351-0.487-3.341c-0.324-0.99-0.881-1.825-1.67-2.506
			c-0.789-0.68-1.833-1.206-3.132-1.578c-1.3-0.371-2.939-0.557-4.919-0.557H156.659z"/>
		<path fill="#4D4D4D" d="M264.775,82.622h-12.157c-1.361,0-2.482-0.317-3.364-0.951s-1.493-1.446-1.833-2.437l-3.99-11.786h-25.707
			l-3.99,11.786c-0.31,0.867-0.913,1.647-1.81,2.344c-0.897,0.696-1.995,1.044-3.295,1.044h-12.25l26.171-67.607h16.055
			L264.775,82.622z M221.343,56.776h18.469l-6.218-18.515c-0.402-1.176-0.875-2.56-1.416-4.153
			c-0.541-1.593-1.075-3.317-1.601-5.174c-0.495,1.888-1.006,3.636-1.531,5.244c-0.526,1.608-1.021,3.001-1.484,4.176
			L221.343,56.776z"/>
		<path fill="#4D4D4D" d="M280.228,15.107c0.464,0.062,0.882,0.178,1.253,0.348s0.727,0.41,1.067,0.72
			c0.34,0.31,0.726,0.727,1.159,1.253l32.11,40.602c-0.124-1.3-0.217-2.56-0.278-3.782c-0.062-1.222-0.093-2.374-0.093-3.457V15.015
			h13.828v67.607h-8.167c-1.206,0-2.228-0.186-3.062-0.557s-1.64-1.052-2.413-2.042l-31.878-40.277
			c0.093,1.177,0.17,2.328,0.232,3.457c0.062,1.13,0.093,2.189,0.093,3.179v36.24h-13.828V15.015h8.26
			C279.19,15.015,279.764,15.046,280.228,15.107z"/>
		<path fill="#4D4D4D" d="M401.754,48.795c0,4.889-0.844,9.396-2.529,13.526s-4.061,7.702-7.123,10.719s-6.751,5.367-11.066,7.053
			c-4.315,1.687-9.103,2.529-14.361,2.529H340.41V15.015h26.264c5.259,0,10.046,0.851,14.361,2.552s8.004,4.053,11.066,7.053
			c3.062,3.001,5.438,6.566,7.123,10.696S401.754,43.938,401.754,48.795z M385.697,48.795c0-3.341-0.433-6.357-1.298-9.049
			c-0.866-2.69-2.111-4.972-3.735-6.844c-1.624-1.871-3.612-3.31-5.963-4.315c-2.352-1.005-5.027-1.508-8.027-1.508h-10.487v43.479
			h10.487c3,0,5.676-0.503,8.027-1.508c2.351-1.005,4.339-2.443,5.963-4.315c1.624-1.871,2.869-4.153,3.735-6.845
			C385.265,55.198,385.697,52.167,385.697,48.795z"/>
	</g>
	<path fill="#3FA9F5" d="M75.682,0c-1.685,0-3.39,0.107-5.105,0.327C54.955,2.333,42.62,13.15,37.934,27.146
		c5.085,3.728,8.69,9.45,9.558,16.197c0.863,6.747-1.183,13.195-5.164,18.085c6.202,9.509,16.308,16.061,27.752,17.664
		c2.807-8.406,10.211-14.904,19.59-16.095c1.032-0.133,2.059-0.197,3.072-0.197c4.501-0.001,8.774,1.274,12.427,3.517
		c7.465-8.303,11.404-19.687,9.872-31.633C112.47,14.64,95.377-0.001,75.682,0"/>
	<path fill="#3FA9F5" d="M105.168,66.316c-6.141,6.828-14.665,11.573-24.489,12.829c-1.718,0.221-3.427,0.328-5.113,0.328
		c-1.856,0-3.688-0.13-5.486-0.382c-1.102,3.3-1.496,6.894-1.022,10.576c1.539,12.027,11.792,20.812,23.605,20.812
		c1.013,0,2.039-0.064,3.07-0.197c13.059-1.672,22.292-13.618,20.615-26.677C115.394,76.162,111.102,69.961,105.168,66.316"/>
	<path fill="#1070EB" d="M92.741,62.8c-1.014,0-2.04,0.064-3.072,0.197c-9.379,1.19-16.783,7.688-19.59,16.095
		c1.799,0.252,3.63,0.382,5.486,0.382c1.687,0,3.396-0.107,5.113-0.328c9.824-1.256,18.349-6.001,24.489-12.829
		C101.516,64.074,97.242,62.799,92.741,62.8"/>
	<path fill="#3FA9F5" d="M23.866,22.532c-1.009,0-2.029,0.064-3.057,0.195C7.753,24.404-1.479,36.35,0.196,49.404
		c1.541,12.037,11.811,20.813,23.632,20.813c1.004,0,2.021-0.063,3.043-0.193c6.313-0.812,11.731-4.022,15.456-8.597
		c-3.172-4.862-5.321-10.497-6.108-16.641c-0.788-6.143-0.128-12.139,1.715-17.642C33.95,24.227,29.06,22.532,23.866,22.532"/>
	<path fill="#1070EB" d="M37.934,27.146c-1.843,5.503-2.503,11.499-1.715,17.642c0.787,6.144,2.937,11.778,6.108,16.641
		c3.981-4.89,6.027-11.338,5.164-18.085C46.624,36.596,43.019,30.873,37.934,27.146"/>
</g>
</svg>
