<?xml version="1.0" encoding="utf-8"?>
<!-- Generator: Adobe Illustrator 16.0.4, SVG Export Plug-In . SVG Version: 6.00 Build 0)  -->
<!DOCTYPE svg PUBLIC "-//W3C//DTD SVG 1.0//EN" "http://www.w3.org/TR/2001/REC-SVG-20010904/DTD/svg10.dtd">
<svg version="1.0" id="Layer_1" xmlns="http://www.w3.org/2000/svg" xmlns:xlink="http://www.w3.org/1999/xlink" x="0px" y="0px"
	 width="333.75px" height="77.463px" viewBox="0 0 333.75 77.463" enable-background="new 0 0 333.75 77.463" xml:space="preserve">
<g>
	<g enable-background="new    ">
		<path fill="#4D4D4D" d="M125.755,38.83c0.401,0.891,0.786,1.803,1.155,2.735c0.369-0.955,0.759-1.883,1.171-2.784
			c0.412-0.901,0.835-1.775,1.269-2.622l12.168-23.971c0.216-0.412,0.439-0.732,0.667-0.96c0.228-0.228,0.482-0.396,0.764-0.505
			c0.282-0.109,0.602-0.163,0.96-0.163s0.775,0,1.252,0h8.394v47.37h-9.695V30.667c0-1.323,0.065-2.755,0.195-4.295L131.497,50.74
			c-0.39,0.76-0.917,1.334-1.578,1.725c-0.662,0.391-1.416,0.586-2.261,0.586h-1.497c-0.846,0-1.6-0.195-2.261-0.586
			s-1.188-0.965-1.578-1.725l-12.623-24.4c0.086,0.759,0.151,1.513,0.195,2.261s0.065,1.438,0.065,2.066v27.264h-9.695v-47.37h8.394
			c0.477,0,0.895,0,1.253,0s0.678,0.054,0.959,0.163c0.282,0.108,0.537,0.277,0.765,0.505c0.228,0.228,0.45,0.548,0.667,0.96
			l12.201,24.068C124.936,37.083,125.354,37.94,125.755,38.83z"/>
		<path fill="#4D4D4D" d="M208.149,34.213c0,3.428-0.592,6.616-1.773,9.565c-1.182,2.95-2.847,5.515-4.994,7.694
			c-2.146,2.18-4.733,3.888-7.76,5.124c-3.025,1.236-6.382,1.854-10.068,1.854c-3.688,0-7.05-0.618-10.086-1.854
			c-3.037-1.236-5.635-2.944-7.792-5.124c-2.158-2.18-3.828-4.744-5.01-7.694c-1.182-2.949-1.773-6.138-1.773-9.565
			c0-3.427,0.591-6.615,1.773-9.565c1.182-2.949,2.852-5.509,5.01-7.678c2.158-2.169,4.755-3.872,7.792-5.108
			c3.036-1.236,6.398-1.854,10.086-1.854c3.687,0,7.043,0.624,10.068,1.871c3.026,1.247,5.613,2.956,7.76,5.124
			c2.147,2.169,3.812,4.729,4.994,7.679C207.557,27.63,208.149,30.808,208.149,34.213z M196.892,34.213
			c0-2.343-0.304-4.451-0.911-6.328c-0.607-1.876-1.48-3.465-2.619-4.767c-1.139-1.301-2.533-2.298-4.181-2.993
			c-1.648-0.693-3.524-1.041-5.628-1.041c-2.127,0-4.019,0.348-5.678,1.041c-1.659,0.695-3.059,1.692-4.197,2.993
			c-1.139,1.302-2.012,2.891-2.619,4.767c-0.607,1.877-0.91,3.985-0.91,6.328c0,2.364,0.303,4.484,0.91,6.36
			c0.607,1.877,1.48,3.465,2.619,4.767s2.538,2.294,4.197,2.977c1.659,0.684,3.551,1.025,5.678,1.025
			c2.104,0,3.979-0.342,5.628-1.025c1.647-0.683,3.042-1.675,4.181-2.977s2.012-2.89,2.619-4.767
			C196.588,38.697,196.892,36.577,196.892,34.213z"/>
	</g>
	<g enable-background="new    ">
		<path fill="#4D4D4D" d="M224.414,42.086v15.845h-10.996V10.527h16.723c3.34,0,6.209,0.396,8.605,1.188
			c2.396,0.792,4.37,1.883,5.922,3.271c1.55,1.388,2.694,3.025,3.432,4.912c0.737,1.888,1.106,3.926,1.106,6.117
			c0,2.364-0.38,4.533-1.139,6.507c-0.76,1.974-1.92,3.665-3.481,5.075s-3.541,2.511-5.938,3.302
			c-2.396,0.792-5.232,1.188-8.508,1.188H224.414z M224.414,33.79h5.727c2.863,0,4.924-0.684,6.182-2.05s1.887-3.274,1.887-5.726
			c0-1.085-0.162-2.071-0.488-2.961c-0.324-0.89-0.818-1.654-1.48-2.294c-0.661-0.64-1.496-1.133-2.504-1.48
			c-1.01-0.347-2.208-0.521-3.596-0.521h-5.727V33.79z"/>
	</g>
	<g enable-background="new    ">
		<path fill="#4D4D4D" d="M293.582,57.931h-8.523c-0.955,0-1.741-0.222-2.359-0.667c-0.618-0.444-1.047-1.014-1.285-1.708
			l-2.798-8.264h-18.024l-2.798,8.264c-0.217,0.607-0.64,1.155-1.269,1.643c-0.629,0.488-1.399,0.732-2.311,0.732h-8.589
			l18.35-47.403h11.257L293.582,57.931z M263.13,39.809h12.948l-4.359-12.981c-0.282-0.823-0.613-1.794-0.992-2.911
			c-0.38-1.117-0.754-2.326-1.123-3.628c-0.347,1.323-0.705,2.549-1.073,3.677s-0.716,2.104-1.041,2.928L263.13,39.809z"/>
	</g>
	<g enable-background="new    ">
		<path fill="#4D4D4D" d="M327.322,45.665c0.261,0,0.521,0.049,0.78,0.146c0.262,0.098,0.51,0.266,0.749,0.504l4.36,4.588
			c-1.91,2.494-4.301,4.376-7.175,5.645s-6.274,1.903-10.199,1.903c-3.601,0-6.827-0.612-9.679-1.838
			c-2.854-1.226-5.271-2.917-7.256-5.075s-3.508-4.718-4.57-7.679c-1.063-2.961-1.595-6.176-1.595-9.646
			c0-3.535,0.606-6.783,1.821-9.744s2.912-5.515,5.092-7.662s4.788-3.817,7.824-5.01c3.037-1.192,6.389-1.79,10.054-1.79
			c1.778,0,3.454,0.158,5.026,0.472c1.572,0.315,3.043,0.749,4.408,1.302c1.367,0.553,2.625,1.215,3.775,1.984
			c1.148,0.771,2.168,1.622,3.058,2.555l-3.709,4.978c-0.239,0.304-0.521,0.58-0.846,0.829c-0.325,0.25-0.781,0.374-1.366,0.374
			c-0.391,0-0.76-0.086-1.106-0.26s-0.716-0.385-1.106-0.635c-0.391-0.249-0.818-0.521-1.285-0.813
			c-0.467-0.292-1.02-0.563-1.659-0.812c-0.64-0.25-1.388-0.461-2.245-0.635s-1.859-0.261-3.01-0.261
			c-1.995,0-3.817,0.354-5.465,1.058c-1.648,0.705-3.064,1.714-4.246,3.025c-1.183,1.313-2.104,2.901-2.766,4.767
			c-0.662,1.866-0.992,3.959-0.992,6.279c0,2.43,0.33,4.588,0.992,6.475s1.562,3.476,2.701,4.767
			c1.139,1.29,2.467,2.271,3.984,2.944c1.519,0.672,3.145,1.008,4.881,1.008c0.997,0,1.908-0.049,2.732-0.146
			s1.589-0.265,2.294-0.504c0.704-0.238,1.377-0.548,2.017-0.927c0.641-0.38,1.285-0.852,1.937-1.416
			c0.261-0.216,0.542-0.396,0.846-0.536C326.682,45.735,326.996,45.665,327.322,45.665z"/>
	</g>
	<path fill="#0070CC" d="M54.482,0c-1.181,0-2.376,0.075-3.579,0.229C39.95,1.636,31.302,9.221,28.017,19.033
		c3.564,2.613,6.093,6.626,6.701,11.356c0.604,4.73-0.83,9.252-3.621,12.68c4.349,6.668,11.434,11.262,19.458,12.386
		c1.968-5.896,7.159-10.45,13.735-11.285c0.724-0.093,1.442-0.139,2.153-0.139c3.155,0,6.152,0.894,8.712,2.467
		c5.234-5.822,7.997-13.804,6.924-22.18C80.277,10.264,68.292,0,54.482,0"/>
	<path fill="#0070CC" d="M75.156,46.498c-4.305,4.787-10.281,8.114-17.17,8.995c-1.205,0.154-2.401,0.23-3.585,0.23
		c-1.301,0-2.585-0.093-3.847-0.27c-0.771,2.312-1.049,4.834-0.717,7.415c1.078,8.434,8.269,14.594,16.553,14.594
		c0.709,0,1.428-0.046,2.15-0.139c9.155-1.173,15.631-9.55,14.455-18.705C82.327,53.401,79.317,49.053,75.156,46.498"/>
	<path fill="#0031A3" d="M66.444,44.031c-0.711,0-1.431,0.046-2.153,0.139c-6.576,0.835-11.769,5.392-13.735,11.285
		c1.262,0.177,2.546,0.269,3.847,0.269c1.184,0,2.381-0.076,3.585-0.229c6.889-0.882,12.865-4.208,17.171-8.995
		C72.597,44.925,69.6,44.031,66.444,44.031"/>
	<path fill="#0070CC" d="M18.151,15.798c-0.707,0-1.422,0.045-2.142,0.137C6.854,17.11,0.383,25.486,1.557,34.64
		c1.081,8.439,8.282,14.593,16.57,14.593c0.704,0,1.416-0.043,2.133-0.135c4.427-0.57,8.226-2.82,10.837-6.027
		c-2.224-3.409-3.73-7.36-4.283-11.668c-0.553-4.307-0.089-8.511,1.203-12.369C25.223,16.985,21.793,15.798,18.151,15.798"/>
	<path fill="#0031A3" d="M28.017,19.033c-1.292,3.858-1.756,8.062-1.203,12.369c0.553,4.308,2.061,8.259,4.283,11.667
		c2.791-3.428,4.226-7.949,3.621-12.68C34.109,25.659,31.581,21.646,28.017,19.033"/>
</g>
</svg>
