<?xml version="1.0" encoding="utf-8"?>
<!-- Generator: Adobe Illustrator 16.0.4, SVG Export Plug-In . SVG Version: 6.00 Build 0)  -->
<!DOCTYPE svg PUBLIC "-//W3C//DTD SVG 1.0//EN" "http://www.w3.org/TR/2001/REC-SVG-20010904/DTD/svg10.dtd">
<svg version="1.0" id="Layer_1" xmlns="http://www.w3.org/2000/svg" xmlns:xlink="http://www.w3.org/1999/xlink" x="0px" y="0px"
	 width="384.443px" height="142.492px" viewBox="0 0 384.443 142.492" enable-background="new 0 0 384.443 142.492"
	 xml:space="preserve">
<g>
	<g enable-background="new    ">
		<path fill="#4D4D4D" d="M241.757,102.774h-14.414c-1.615,0-2.944-0.376-3.99-1.128c-1.045-0.751-1.77-1.714-2.172-2.889
			l-4.732-13.975h-30.48l-4.731,13.975c-0.367,1.027-1.083,1.953-2.146,2.778c-1.064,0.825-2.366,1.238-3.906,1.238H160.66
			l31.031-80.162h19.036L241.757,102.774z M190.26,72.129h21.897l-7.373-21.952c-0.477-1.394-1.036-3.034-1.678-4.924
			c-0.643-1.889-1.275-3.934-1.898-6.135c-0.587,2.237-1.191,4.311-1.815,6.217c-0.624,1.908-1.21,3.559-1.761,4.952L190.26,72.129z
			"/>
		<path fill="#4D4D4D" d="M320.984,62.666c0,5.796-1,11.142-2.998,16.038c-2,4.896-4.814,9.133-8.445,12.709
			c-3.632,3.576-8.006,6.364-13.122,8.363s-10.794,2.998-17.028,2.998h-31.141V22.612h31.141c6.234,0,11.912,1.01,17.028,3.026
			c5.116,2.018,9.49,4.806,13.122,8.363c3.631,3.558,6.445,7.784,8.445,12.682C319.984,51.58,320.984,56.908,320.984,62.666z
			 M301.948,62.666c0-3.961-0.515-7.537-1.54-10.729c-1.027-3.191-2.504-5.896-4.43-8.115c-1.926-2.219-4.283-3.925-7.07-5.117
			c-2.787-1.191-5.961-1.788-9.518-1.788h-12.434V88.47h12.434c3.557,0,6.73-0.596,9.518-1.788c2.787-1.191,5.145-2.897,7.07-5.117
			c1.926-2.219,3.402-4.924,4.43-8.115C301.433,70.259,301.948,66.664,301.948,62.666z"/>
		<path fill="#4D4D4D" d="M381.503,22.612v14.305h-32.901v20.302h27.399v14.36h-27.399v31.195h-18.706V22.612H381.503z"/>
	</g>
	<path fill="#7AD28C" d="M89.733,4.81c-1.998,0-4.018,0.127-6.052,0.388c-18.521,2.378-33.146,15.205-38.703,31.8
		c6.029,4.418,10.305,11.204,11.332,19.204c1.023,8-1.401,15.646-6.123,21.442c7.354,11.274,19.335,19.043,32.905,20.944
		c3.328-9.968,12.105-17.673,23.227-19.084c1.226-0.157,2.44-0.233,3.644-0.233c5.337,0,10.404,1.512,14.733,4.17
		c8.853-9.844,13.522-23.341,11.706-37.506C133.355,22.168,113.085,4.81,89.733,4.81"/>
	<path fill="#7AD28C" d="M124.696,83.441c-7.278,8.096-17.388,13.722-29.034,15.211c-2.037,0.262-4.062,0.39-6.063,0.39
		c-2.2,0-4.372-0.153-6.505-0.453c-1.307,3.912-1.773,8.173-1.212,12.539c1.824,14.263,13.979,24.679,27.987,24.679
		c1.2,0,2.418-0.076,3.641-0.233c15.484-1.982,26.433-16.146,24.444-31.632C136.821,95.114,131.733,87.762,124.696,83.441"/>
	<path fill="#3AAD4D" d="M109.961,79.271c-1.202,0-2.418,0.076-3.644,0.233c-11.12,1.411-19.897,9.116-23.227,19.084
		c2.133,0.3,4.305,0.453,6.505,0.453c2.001,0,4.026-0.128,6.063-0.39c11.646-1.489,21.756-7.115,29.034-15.211
		C120.366,80.782,115.298,79.271,109.961,79.271"/>
	<path fill="#7AD28C" d="M28.298,31.526c-1.195,0-2.406,0.076-3.624,0.231C9.193,33.746-1.753,47.91,0.233,63.389
		C2.06,77.661,14.238,88.066,28.254,88.066c1.188,0,2.396-0.074,3.605-0.229c7.485-0.963,13.91-4.77,18.326-10.193
		c-3.76-5.766-6.309-12.446-7.242-19.73c-0.935-7.282-0.15-14.392,2.033-20.916C40.255,33.535,34.456,31.526,28.298,31.526"/>
	<path fill="#3AAD4D" d="M44.978,36.997c-2.185,6.524-2.968,13.634-2.033,20.916c0.935,7.284,3.482,13.966,7.242,19.731
		c4.722-5.799,7.146-13.443,6.123-21.443C55.282,48.201,51.007,41.415,44.978,36.997"/>
</g>
</svg>
