<?xml version="1.0" encoding="utf-8"?>
<!-- Generator: Adobe Illustrator 16.0.4, SVG Export Plug-In . SVG Version: 6.00 Build 0)  -->
<!DOCTYPE svg PUBLIC "-//W3C//DTD SVG 1.0//EN" "http://www.w3.org/TR/2001/REC-SVG-20010904/DTD/svg10.dtd">
<svg version="1.0" id="Layer_1" xmlns="http://www.w3.org/2000/svg" xmlns:xlink="http://www.w3.org/1999/xlink" x="0px" y="0px"
	 width="335px" height="101.667px" viewBox="0 0 335 101.667" enable-background="new 0 0 335 101.667" xml:space="preserve">
<g>
	<g enable-background="new    ">
		<path fill="#4D4D4D" d="M184.004,46.172c0,4.397-0.758,8.453-2.275,12.168c-1.517,3.716-3.652,6.93-6.407,9.644
			c-2.755,2.713-6.073,4.828-9.956,6.345c-3.882,1.518-8.189,2.275-12.92,2.275h-23.628V15.782h23.628
			c4.73,0,9.038,0.766,12.92,2.296c3.883,1.531,7.201,3.646,9.956,6.346s4.891,5.906,6.407,9.622
			C183.246,37.76,184.004,41.803,184.004,46.172z M169.561,46.172c0-3.006-0.391-5.72-1.169-8.141
			c-0.779-2.421-1.899-4.474-3.36-6.157s-3.25-2.978-5.364-3.883c-2.115-0.903-4.523-1.356-7.222-1.356h-9.435V65.75h9.435
			c2.699,0,5.106-0.452,7.222-1.356c2.115-0.904,3.903-2.198,5.364-3.883c1.461-1.684,2.581-3.736,3.36-6.157
			C169.17,51.933,169.561,49.206,169.561,46.172z"/>
		<path fill="#4D4D4D" d="M229.922,15.782v10.854h-24.963V42.04h20.789v10.896h-20.789v23.669h-14.193V15.782H229.922z"/>
		<path fill="#4D4D4D" d="M281.436,15.782v11.188h-17.115v49.635h-14.11V26.969h-17.115V15.782H281.436z"/>
		<path fill="#4D4D4D" d="M287.28,76.604V15.782h22.375c4.202,0,7.779,0.39,10.729,1.169s5.357,1.879,7.223,3.298
			c1.863,1.419,3.221,3.146,4.07,5.177c0.848,2.031,1.272,4.299,1.272,6.804c0,1.364-0.194,2.679-0.585,3.945
			c-0.39,1.267-1.002,2.456-1.836,3.569c-0.835,1.113-1.906,2.122-3.215,3.026s-2.881,1.69-4.717,2.358
			c4.008,0.975,6.971,2.554,8.892,4.738c1.92,2.185,2.88,4.988,2.88,8.411c0,2.588-0.5,4.996-1.502,7.222
			c-1.002,2.228-2.471,4.168-4.404,5.824c-1.936,1.655-4.32,2.95-7.16,3.882c-2.838,0.933-6.08,1.398-9.727,1.398H287.28z
			 M301.389,41.372h7.348c1.559,0,2.964-0.111,4.217-0.334c1.252-0.223,2.316-0.612,3.193-1.169
			c0.876-0.557,1.544-1.321,2.004-2.296c0.459-0.974,0.688-2.198,0.688-3.674c0-1.446-0.181-2.65-0.542-3.61
			c-0.362-0.961-0.919-1.732-1.67-2.317c-0.751-0.584-1.705-1.002-2.859-1.252c-1.155-0.251-2.526-0.376-4.112-0.376h-8.266V41.372z
			 M301.389,50.806v15.153h9.936c1.864,0,3.389-0.236,4.571-0.71c1.183-0.473,2.108-1.086,2.776-1.837s1.127-1.6,1.377-2.547
			c0.251-0.945,0.376-1.905,0.376-2.88c0-1.113-0.146-2.114-0.438-3.006c-0.292-0.891-0.793-1.642-1.502-2.254
			c-0.711-0.612-1.649-1.086-2.818-1.42c-1.169-0.333-2.645-0.5-4.426-0.5H301.389z"/>
	</g>
	<path fill="#F7E21C" d="M70.075,2.273c-1.517,0.001-3.051,0.097-4.594,0.295C51.43,4.373,40.333,14.105,36.116,26.695
		c4.574,3.353,7.817,8.502,8.599,14.571c0.776,6.07-1.064,11.871-4.646,16.271c5.579,8.555,14.672,14.448,24.968,15.893
		c2.524-7.562,9.187-13.41,17.623-14.48c0.929-0.119,1.852-0.178,2.765-0.178c4.049,0,7.894,1.146,11.179,3.164
		c6.717-7.469,10.261-17.71,8.882-28.458C103.172,15.443,87.794,2.273,70.075,2.273"/>
	<path fill="#F7E21C" d="M96.602,61.935c-5.522,6.145-13.191,10.412-22.03,11.542c-1.546,0.198-3.081,0.296-4.6,0.296
		c-1.67,0-3.317-0.117-4.937-0.344c-0.991,2.968-1.347,6.201-0.92,9.514c1.384,10.82,10.608,18.725,21.236,18.725
		c0.911,0,1.833-0.059,2.761-0.178c11.748-1.505,20.056-12.252,18.548-24C105.801,70.792,101.94,65.214,96.602,61.935"/>
	<path fill="#EFC803" d="M85.423,58.771c-0.913,0-1.836,0.059-2.765,0.178c-8.438,1.07-15.099,6.918-17.623,14.48
		c1.618,0.227,3.267,0.344,4.937,0.344c1.518,0,3.054-0.098,4.6-0.296c8.839-1.13,16.508-5.397,22.03-11.542
		C93.316,59.917,89.472,58.771,85.423,58.771"/>
	<path fill="#F7E21C" d="M23.46,22.544c-0.907,0-1.826,0.058-2.749,0.176c-11.747,1.509-20.052,12.256-18.545,24
		c1.386,10.829,10.625,18.725,21.26,18.725c0.904,0,1.818-0.057,2.738-0.174c5.68-0.73,10.554-3.619,13.903-7.732
		c-2.854-4.375-4.787-9.445-5.495-14.973c-0.709-5.527-0.114-10.919,1.544-15.87C32.532,24.068,28.132,22.544,23.46,22.544"/>
	<path fill="#EFC803" d="M36.116,26.695c-1.658,4.951-2.253,10.343-1.543,15.87c0.707,5.527,2.642,10.597,5.494,14.972
		c3.582-4.398,5.424-10.2,4.646-16.271C43.935,35.197,40.691,30.048,36.116,26.695"/>
</g>
</svg>
