<?xml version="1.0" encoding="UTF-8" standalone="no"?>
<!-- Created with Inkscape (http://www.inkscape.org/) -->

<svg
   xmlns:osb="http://www.openswatchbook.org/uri/2009/osb"
   xmlns:dc="http://purl.org/dc/elements/1.1/"
   xmlns:cc="http://creativecommons.org/ns#"
   xmlns:rdf="http://www.w3.org/1999/02/22-rdf-syntax-ns#"
   xmlns:svg="http://www.w3.org/2000/svg"
   xmlns="http://www.w3.org/2000/svg"
   xmlns:sodipodi="http://sodipodi.sourceforge.net/DTD/sodipodi-0.dtd"
   xmlns:inkscape="http://www.inkscape.org/namespaces/inkscape"
   width="53.806835mm"
   height="17.604153mm"
   viewBox="0 0 190.65414 62.376915"
   id="svg4952"
   version="1.1"
   inkscape:version="0.91 r13725"
   sodipodi:docname="ams_small.svg">
  <defs
     id="defs4954">
    <linearGradient
       gradientTransform="matrix(2077.2029,0,0,-2077.2029,801504.51,-1115208.6)"
       osb:paint="solid"
       id="linearGradient5095">
      <stop
         id="stop5093"
         offset="0"
         style="stop-color:#8e4585;stop-opacity:1;" />
    </linearGradient>
    <linearGradient
       gradientTransform="matrix(17723.77,0,0,17723.77,7258371.8,9213632.9)"
       osb:paint="solid"
       id="linearGradient5135">
      <stop
         id="stop5133"
         offset="0"
         style="stop-color:#dda0dd;stop-opacity:1;" />
    </linearGradient>
  </defs>
  <sodipodi:namedview
     id="base"
     pagecolor="#ffffff"
     bordercolor="#666666"
     borderopacity="1.0"
     inkscape:pageopacity="0.0"
     inkscape:pageshadow="2"
     inkscape:zoom="0.35"
     inkscape:cx="76.531526"
     inkscape:cy="251.079"
     inkscape:document-units="px"
     inkscape:current-layer="layer1"
     showgrid="false"
     fit-margin-top="0"
     fit-margin-left="0"
     fit-margin-right="0"
     fit-margin-bottom="0"
     inkscape:window-width="728"
     inkscape:window-height="414"
     inkscape:window-x="1273"
     inkscape:window-y="385"
     inkscape:window-maximized="1" />
  <metadata
     id="metadata4957">
    <rdf:RDF>
      <cc:Work
         rdf:about="">
        <dc:format>image/svg+xml</dc:format>
        <dc:type
           rdf:resource="http://purl.org/dc/dcmitype/StillImage" />
        <dc:title></dc:title>
      </cc:Work>
    </rdf:RDF>
  </metadata>
  <g
     inkscape:label="Layer 1"
     inkscape:groupmode="layer"
     id="layer1"
     transform="translate(118.17625,-721.06427)">
    <g
       id="g5279"
       transform="matrix(1.25,0,0,-1.25,-1668.1315,1787.7239)">
      <circle
         transform="scale(1,-1)"
         r="10.765903"
         cy="-832.40741"
         cx="1250.7301"
         id="circle5169"
         style="opacity:1;fill:#aae3b5;fill-opacity:1;stroke:none;stroke-width:0.37795278;stroke-linecap:round;stroke-linejoin:round;stroke-miterlimit:4;stroke-dasharray:none;stroke-dashoffset:0;stroke-opacity:1" />
      <circle
         transform="scale(1,-1)"
         r="5.7261062"
         style="opacity:1;fill:#ffffff;fill-opacity:1;stroke:none;stroke-width:0.37795278;stroke-linecap:round;stroke-linejoin:round;stroke-miterlimit:4;stroke-dasharray:none;stroke-dashoffset:0;stroke-opacity:1"
         id="circle5171"
         cx="1250.7301"
         cy="-832.40741" />
      <circle
         transform="scale(1,-1)"
         r="17.984446"
         cy="-835.34326"
         cx="1274.0297"
         id="circle5173"
         style="opacity:1;fill:#94dba2;fill-opacity:1;stroke:none;stroke-width:0.37795278;stroke-linecap:round;stroke-linejoin:round;stroke-miterlimit:4;stroke-dasharray:none;stroke-dashoffset:0;stroke-opacity:1" />
      <circle
         transform="scale(1,-1)"
         style="opacity:1;fill:#ffffff;fill-opacity:1;stroke:none;stroke-width:0.37795278;stroke-linecap:round;stroke-linejoin:round;stroke-miterlimit:4;stroke-dasharray:none;stroke-dashoffset:0;stroke-opacity:1"
         id="circle5175"
         cx="1274.0297"
         cy="-835.34326"
         r="11.902438" />
      <circle
         transform="scale(1,-1)"
         r="10.765903"
         cy="-814.19208"
         cx="1281.7545"
         id="circle5177"
         style="opacity:1;fill:#7ad28c;fill-opacity:1;stroke:none;stroke-width:0.37795278;stroke-linecap:round;stroke-linejoin:round;stroke-miterlimit:4;stroke-dasharray:none;stroke-dashoffset:0;stroke-opacity:1" />
      <circle
         transform="scale(1,-1)"
         r="5.7261062"
         style="opacity:1;fill:#ffffff;fill-opacity:1;stroke:none;stroke-width:0.37795278;stroke-linecap:round;stroke-linejoin:round;stroke-miterlimit:4;stroke-dasharray:none;stroke-dashoffset:0;stroke-opacity:1"
         id="circle5179"
         cx="1281.7545"
         cy="-814.19208" />
      <path
         inkscape:connector-curvature="0"
         id="path5181"
         d="m 1250.5575,832.2857 23.2799,2.8311 8.1712,-21.07619"
         style="fill:none;fill-rule:evenodd;stroke:#ffffff;stroke-width:2.97757506;stroke-linecap:butt;stroke-linejoin:miter;stroke-miterlimit:4;stroke-dasharray:none;stroke-opacity:1" />
    </g>
    <g
       id="g5288"
       transform="matrix(2.2683014,0,0,-2.2683014,-2979.5276,2627.9629)">
      <g
         aria-label="AMS"
         transform="matrix(0.29577754,0,0,-0.29577754,1281.9156,812.17557)"
         style="font-style:normal;font-variant:normal;font-weight:900;font-stretch:normal;font-size:20px;line-height:125%;font-family:Lato;-inkscape-font-specification:'Lato Heavy';letter-spacing:0px;word-spacing:0px;fill:#4d4d4d;fill-opacity:1;stroke:none;stroke-width:0.96797514px;stroke-linecap:butt;stroke-linejoin:miter;stroke-opacity:1"
         id="g5161">
        <path
           inkscape:connector-curvature="0"
           d="M 86.508712,-57.769381 81.468713,-72.66538 q -0.56,-1.418667 -1.194667,-3.322667 -0.634667,-1.941333 -1.269333,-4.181333 -0.56,2.277333 -1.194667,4.218667 -0.634667,1.941333 -1.194667,3.36 l -5.002666,14.821332 z m 20.047998,20.794666 -9.781331,0 q -1.642667,0 -2.650667,-0.746666 -1.008,-0.784 -1.530666,-1.978667 l -3.210667,-9.482666 -20.682666,0 -3.210667,9.482666 q -0.410666,1.045333 -1.493333,1.904 -1.045333,0.821333 -2.613333,0.821333 l -9.856,0 21.056,-54.394664 12.917332,0 z"
           style="font-style:normal;font-variant:normal;font-weight:900;font-stretch:normal;font-size:74.66666412px;font-family:Lato;-inkscape-font-specification:'Lato Heavy';letter-spacing:-0.77438009px;fill:#4d4d4d;fill-opacity:1;stroke:none;stroke-width:0.96797514px;stroke-opacity:1"
           id="path5163" />
        <path
           inkscape:connector-curvature="0"
           d="m 171.223,-91.369379 0,54.394664 -11.12534,0 0,-31.285332 q 0,-1.082666 0.0373,-2.352 0.0747,-1.269333 0.224,-2.576 l -14.448,27.962666 q -0.672,1.306667 -1.82934,1.978667 -1.12,0.672 -2.576,0.672 l -1.71733,0 q -1.456,0 -2.61333,-0.672 -1.12,-0.672 -1.792,-1.978667 l -14.448,-28.037332 q 0.112,1.344 0.18667,2.650666 0.0747,1.269334 0.0747,2.352 l 0,31.285332 -11.12533,0 0,-54.394664 9.632,0 q 0.82133,0 1.41867,0.03733 0.63466,0.03733 1.12,0.224 0.48533,0.186667 0.85866,0.597333 0.41067,0.373334 0.784,1.082667 l 14,27.589332 q 0.74667,1.418667 1.41867,2.949333 0.70933,1.530667 1.344,3.136 0.63466,-1.642666 1.30666,-3.210666 0.70934,-1.568 1.49334,-2.986667 l 13.96266,-27.477332 q 0.37334,-0.709333 0.74667,-1.082667 0.41067,-0.410666 0.896,-0.597333 0.48533,-0.186667 1.08267,-0.224 0.63466,-0.03733 1.456,-0.03733 z"
           style="font-style:normal;font-variant:normal;font-weight:900;font-stretch:normal;font-size:74.66666412px;font-family:Lato;-inkscape-font-specification:'Lato Heavy';letter-spacing:-0.77438009px;fill:#4d4d4d;fill-opacity:1;stroke:none;stroke-width:0.96797514px;stroke-opacity:1"
           id="path5165" />
        <path
           inkscape:connector-curvature="0"
           d="m 211.09995,-80.318713 q -0.56,0.896 -1.19467,1.344 -0.59733,0.448 -1.568,0.448 -0.85867,0 -1.86667,-0.522667 -0.97066,-0.56 -2.24,-1.232 -1.232,-0.672 -2.83733,-1.194666 -1.60533,-0.56 -3.65867,-0.56 -3.54666,0 -5.30133,1.530666 -1.71733,1.493334 -1.71733,4.069333 0,1.642667 1.04533,2.725334 1.04534,1.082666 2.72534,1.866666 1.71733,0.784 3.88266,1.456 2.20267,0.634667 4.48,1.456 2.27733,0.784 4.44267,1.866667 2.20266,1.082666 3.88266,2.762666 1.71734,1.68 2.76267,4.106667 1.04533,2.389333 1.04533,5.786666 0,3.770667 -1.30666,7.056 -1.30667,3.285333 -3.808,5.749333 -2.464,2.426667 -6.12267,3.845333 -3.62133,1.381334 -8.25067,1.381334 -2.53866,0 -5.18933,-0.522667 -2.61333,-0.522667 -5.07733,-1.456 -2.464,-0.970667 -4.62933,-2.277333 -2.16534,-1.306667 -3.77067,-2.912 l 3.73333,-5.898666 q 0.448,-0.634667 1.15734,-1.045334 0.74666,-0.448 1.60533,-0.448 1.12,0 2.24,0.709334 1.15733,0.709333 2.576,1.567999 1.456,0.858667 3.32267,1.568 1.86666,0.709334 4.40533,0.709334 3.43466,0 5.33866,-1.493334 1.904,-1.530666 1.904,-4.815999 0,-1.904 -1.04533,-3.098667 -1.04533,-1.194667 -2.76267,-1.978667 -1.68,-0.784 -3.84533,-1.381333 -2.16533,-0.597333 -4.44266,-1.306666 -2.27734,-0.746667 -4.44267,-1.792 -2.16533,-1.082667 -3.88267,-2.8 -1.68,-1.754667 -2.72533,-4.330667 -1.04533,-2.613333 -1.04533,-6.421333 0,-3.061333 1.232,-5.973333 1.232,-2.912 3.62133,-5.189333 2.38933,-2.277333 5.86133,-3.621333 3.472,-1.381334 7.952,-1.381334 2.50133,0 4.85333,0.410667 2.38934,0.373333 4.51734,1.157333 2.128,0.746667 3.95733,1.829334 1.86667,1.045333 3.32267,2.389333 z"
           style="font-style:normal;font-variant:normal;font-weight:900;font-stretch:normal;font-size:74.66666412px;font-family:Lato;-inkscape-font-specification:'Lato Heavy';letter-spacing:-0.77438009px;fill:#4d4d4d;fill-opacity:1;stroke:none;stroke-width:0.96797514px;stroke-opacity:1"
           id="path5167" />
      </g>
      <g
         aria-label="driver"
         transform="matrix(0.48129745,0,0,-0.48129745,1203.3481,903.59649)"
         style="font-style:normal;font-variant:normal;font-weight:800;font-stretch:normal;font-size:20px;line-height:125%;font-family:Lato;-inkscape-font-specification:'Lato Ultra-Bold';letter-spacing:0px;word-spacing:0px;fill:#4d4d4d;fill-opacity:1;stroke:none;stroke-width:0.59486145px;stroke-linecap:butt;stroke-linejoin:miter;stroke-opacity:1"
         id="g5183">
        <path
           inkscape:connector-curvature="0"
           d="m 215.68187,177.67898 q -0.39,-0.45 -0.85,-0.63 -0.45,-0.18 -0.96,-0.18 -0.5,0 -0.91,0.19 -0.41,0.19 -0.71,0.6 -0.29,0.4 -0.45,1.03 -0.16,0.63 -0.16,1.5 0,0.86 0.13,1.46 0.13,0.6 0.37,0.97 0.25,0.37 0.6,0.54 0.35,0.16 0.78,0.16 0.73,0 1.22,-0.29 0.5,-0.29 0.94,-0.82 z m 2.76,-7.28 0,14.91 -1.7,0 q -0.53,0 -0.68,-0.48 l -0.23,-0.9 q -0.31,0.34 -0.66,0.62 -0.34,0.28 -0.74,0.49 -0.39999,0.2 -0.86,0.31 -0.46,0.11 -1,0.11 -0.83,0 -1.52,-0.35 -0.69,-0.35 -1.2,-1.02 -0.5,-0.68 -0.78,-1.66 -0.28,-0.98 -0.28,-2.24 0,-1.15 0.31,-2.14 0.32,-0.99 0.9,-1.71 0.58,-0.72 1.4,-1.13 0.82,-0.41 1.82,-0.41 0.84,0 1.41,0.25 0.58,0.25 1.05,0.68 l 0,-5.33 z"
           style="font-style:normal;font-variant:normal;font-weight:800;font-stretch:normal;font-family:Lato;-inkscape-font-specification:'Lato Ultra-Bold';letter-spacing:0px;stroke-width:0.59486145px"
           id="path5185" />
        <path
           inkscape:connector-curvature="0"
           d="m 223.30812,176.69898 q 0.49,-0.88 1.13001,-1.39 0.63999,-0.51 1.5,-0.51 0.69999,0 1.13999,0.33 l -0.18,2.04 q -0.05,0.2 -0.16,0.28 -0.1,0.07 -0.28,0.07 -0.16,0 -0.46,-0.04 -0.3,-0.05 -0.55999,-0.05 -0.38001,0 -0.68001,0.11 -0.29,0.11 -0.52,0.31 -0.23,0.2 -0.42,0.49 -0.18,0.29 -0.34,0.66 l 0,6.31 -2.76,0 0,-10.31 1.63,0 q 0.42,0 0.58,0.15 0.16,0.15 0.23,0.52 z"
           style="font-style:normal;font-variant:normal;font-weight:800;font-stretch:normal;font-family:Lato;-inkscape-font-specification:'Lato Ultra-Bold';letter-spacing:0px;stroke-width:0.59486145px"
           id="path5187" />
        <path
           inkscape:connector-curvature="0"
           d="m 231.09719,174.99898 0,10.31 -2.76,0 0,-10.31 z m 0.33,-2.93 q 0,0.35 -0.14,0.65 -0.14,0.3 -0.38,0.53 -0.23,0.23 -0.55,0.36 -0.31,0.13 -0.67,0.13 -0.34,0 -0.65,-0.13 -0.3,-0.13 -0.53,-0.36 -0.23,-0.23 -0.37,-0.53 -0.13,-0.3 -0.13,-0.65 0,-0.35 0.13,-0.65 0.14,-0.31 0.37,-0.54 0.23,-0.23 0.53,-0.36 0.31,-0.13 0.65,-0.13 0.36,0 0.67,0.13 0.32,0.13 0.55,0.36 0.24,0.23 0.38,0.54 0.14,0.3 0.14,0.65 z"
           style="font-style:normal;font-variant:normal;font-weight:800;font-stretch:normal;font-family:Lato;-inkscape-font-specification:'Lato Ultra-Bold';letter-spacing:0px;stroke-width:0.59486145px"
           id="path5189" />
        <path
           inkscape:connector-curvature="0"
           d="m 242.9425,174.99898 -4.05,10.31 -2.5,0 -4.05,-10.31 2.29,0 q 0.3,0 0.5,0.14 0.2,0.14 0.28,0.36 l 1.73,5.1 q 0.17,0.52 0.3,1.02 0.13,0.49 0.23,0.99 0.11,-0.5 0.24,-0.99 0.14,-0.5 0.32,-1.02 l 1.79,-5.1 q 0.07,-0.22 0.27,-0.36 0.2,-0.14 0.47,-0.14 z"
           style="font-style:normal;font-variant:normal;font-weight:800;font-stretch:normal;font-family:Lato;-inkscape-font-specification:'Lato Ultra-Bold';letter-spacing:0px;stroke-width:0.59486145px"
           id="path5191" />
        <path
           inkscape:connector-curvature="0"
           d="m 250.34406,178.93898 q 0,-0.43 -0.12,-0.82 -0.11,-0.39 -0.36,-0.69 -0.25,-0.3 -0.63,-0.47 -0.38,-0.18 -0.91,-0.18 -0.99,0 -1.55,0.56 -0.56,0.56 -0.73,1.6 z m -4.34,1.64 q 0.13,1.45 0.82,2.12 0.7,0.67 1.82,0.67 0.57,0 0.98,-0.13 0.42,-0.14 0.73,-0.3 0.32,-0.17 0.57,-0.3 0.26,-0.14 0.51,-0.14 0.32,0 0.5,0.24 l 0.8,1 q -0.44,0.51 -0.97,0.85 -0.53,0.33 -1.1,0.53 -0.57,0.19 -1.15,0.26 -0.58,0.08 -1.12,0.08 -1.08,0 -2.02,-0.35 -0.93,-0.36 -1.63,-1.05 -0.69,-0.7 -1.09,-1.73 -0.4,-1.03 -0.4,-2.39 0,-1.05 0.34,-1.98 0.35,-0.93 1,-1.62 0.65,-0.69 1.58,-1.09 0.93,-0.41 2.1,-0.41 0.99,0 1.82,0.32 0.84,0.31 1.44,0.91 0.61,0.6 0.94,1.48 0.34,0.87 0.34,1.99 0,0.31 -0.03,0.51 -0.03,0.2 -0.1,0.32 -0.07,0.12 -0.19,0.17 -0.12,0.04 -0.31,0.04 z"
           style="font-style:normal;font-variant:normal;font-weight:800;font-stretch:normal;font-family:Lato;-inkscape-font-specification:'Lato Ultra-Bold';letter-spacing:0px;stroke-width:0.59486145px"
           id="path5193" />
        <path
           inkscape:connector-curvature="0"
           d="m 257.09719,176.69898 q 0.49,-0.88 1.13,-1.39 0.64,-0.51 1.5,-0.51 0.7,0 1.14,0.33 l -0.18,2.04 q -0.05,0.2 -0.16,0.28 -0.1,0.07 -0.28,0.07 -0.16,0 -0.46,-0.04 -0.3,-0.05 -0.56,-0.05 -0.38,0 -0.68,0.11 -0.29,0.11 -0.52,0.31 -0.23,0.2 -0.42,0.49 -0.18,0.29 -0.34,0.66 l 0,6.31 -2.76,0 0,-10.31 1.63,0 q 0.42,0 0.58,0.15 0.16,0.15 0.23,0.52 z"
           style="font-style:normal;font-variant:normal;font-weight:800;font-stretch:normal;font-family:Lato;-inkscape-font-specification:'Lato Ultra-Bold';letter-spacing:0px;stroke-width:0.59486145px"
           id="path5195" />
      </g>
    </g>
  </g>
</svg>
