<?xml version="1.0" encoding="utf-8"?>
<!-- Generator: Adobe Illustrator 16.0.4, SVG Export Plug-In . SVG Version: 6.00 Build 0)  -->
<!DOCTYPE svg PUBLIC "-//W3C//DTD SVG 1.0//EN" "http://www.w3.org/TR/2001/REC-SVG-20010904/DTD/svg10.dtd">
<svg version="1.0" id="Layer_1" xmlns="http://www.w3.org/2000/svg" xmlns:xlink="http://www.w3.org/1999/xlink" x="0px" y="0px"
	 width="372.833px" height="90.624px" viewBox="0 0 372.833 90.624" enable-background="new 0 0 372.833 90.624"
	 xml:space="preserve">
<g>
	<g>
		<path fill="#4D4D4D" d="M129.113,47.258v20.516h-12.865V12.317h18.041c4.009,0,7.428,0.413,10.258,1.237
			c2.829,0.825,5.139,1.974,6.927,3.444c1.789,1.472,3.09,3.21,3.901,5.215c0.812,2.005,1.219,4.187,1.219,6.546
			c0,1.803-0.242,3.502-0.724,5.101c-0.482,1.599-1.199,3.077-2.15,4.435s-2.119,2.569-3.502,3.635s-2.975,1.941-4.776,2.626
			c0.862,0.432,1.668,0.965,2.417,1.599c0.748,0.635,1.401,1.408,1.96,2.322l11.799,19.297h-11.646
			c-2.157,0-3.705-0.812-4.644-2.436l-9.211-16.101c-0.406-0.71-0.882-1.218-1.428-1.522s-1.312-0.457-2.303-0.457H129.113z
			 M129.113,38.39h5.176c1.751,0,3.241-0.222,4.473-0.666c1.23-0.443,2.239-1.06,3.025-1.846s1.357-1.706,1.713-2.76
			c0.355-1.053,0.533-2.188,0.533-3.406c0-2.437-0.794-4.339-2.379-5.709c-1.586-1.37-4.041-2.056-7.365-2.056h-5.176V38.39z"/>
		<path fill="#4D4D4D" d="M183.769,27.694c2.613,0,5.005,0.406,7.175,1.218c2.169,0.812,4.034,1.992,5.595,3.54
			s2.778,3.444,3.654,5.69c0.875,2.245,1.312,4.79,1.312,7.631c0,0.889-0.038,1.612-0.114,2.17
			c-0.075,0.559-0.216,1.003-0.418,1.332c-0.204,0.33-0.476,0.559-0.818,0.686s-0.78,0.189-1.313,0.189H176.08
			c0.381,3.3,1.383,5.69,3.007,7.175s3.717,2.227,6.28,2.227c1.37,0,2.55-0.164,3.54-0.494c0.989-0.33,1.87-0.698,2.645-1.104
			c0.774-0.405,1.484-0.773,2.132-1.104c0.647-0.329,1.325-0.495,2.036-0.495c0.938,0,1.649,0.343,2.132,1.028l3.426,4.225
			c-1.219,1.396-2.531,2.531-3.939,3.406c-1.408,0.876-2.855,1.561-4.34,2.056s-2.969,0.837-4.453,1.027s-2.898,0.286-4.243,0.286
			c-2.767,0-5.361-0.451-7.784-1.352s-4.542-2.239-6.356-4.016c-1.814-1.775-3.248-3.983-4.301-6.623
			c-1.053-2.639-1.579-5.709-1.579-9.211c0-2.639,0.45-5.138,1.351-7.498c0.9-2.359,2.194-4.428,3.883-6.204
			c1.687-1.775,3.729-3.184,6.128-4.225C178.04,28.215,180.749,27.694,183.769,27.694z M183.997,35.84
			c-2.259,0-4.022,0.641-5.291,1.922s-2.106,3.128-2.512,5.538h14.729c0-0.938-0.12-1.852-0.361-2.74
			c-0.241-0.888-0.635-1.681-1.18-2.379c-0.546-0.698-1.263-1.262-2.15-1.694C186.344,36.056,185.266,35.84,183.997,35.84z"/>
		<path fill="#4D4D4D" d="M235.532,67.773c-1.117,0-1.961-0.152-2.531-0.457s-1.047-0.938-1.426-1.902l-0.84-2.17
			c-0.988,0.837-1.941,1.573-2.852,2.207c-0.914,0.635-1.859,1.175-2.836,1.618c-0.98,0.444-2.02,0.773-3.121,0.989
			c-1.105,0.216-2.328,0.324-3.676,0.324c-1.801,0-3.438-0.236-4.908-0.707c-1.473-0.471-2.722-1.164-3.749-2.081
			c-1.028-0.916-1.821-2.056-2.379-3.418c-0.559-1.361-0.838-2.934-0.838-4.715c0-1.4,0.355-2.839,1.066-4.315
			c0.71-1.477,1.94-2.819,3.691-4.028s4.112-2.221,7.081-3.036c2.969-0.814,6.711-1.222,11.227-1.222v-1.69
			c0-2.33-0.477-4.014-1.426-5.051c-0.953-1.038-2.305-1.557-4.055-1.557c-1.395,0-2.539,0.152-3.426,0.457s-1.68,0.647-2.379,1.027
			c-0.699,0.381-1.375,0.724-2.035,1.028s-1.449,0.456-2.359,0.456c-0.812,0-1.505-0.195-2.076-0.59
			c-0.57-0.393-1.021-0.881-1.351-1.465l-2.132-3.692c2.385-2.105,5.031-3.673,7.938-4.7c2.902-1.028,6.02-1.542,9.344-1.542
			c2.383,0,4.535,0.388,6.449,1.161c1.918,0.774,3.539,1.853,4.871,3.235c1.336,1.383,2.355,3.025,3.066,4.929
			s1.066,3.984,1.066,6.242v24.664H235.532z M221.981,60.58c1.523,0,2.855-0.267,3.996-0.8c1.145-0.532,2.297-1.395,3.465-2.588
			v-5.405c-2.359,0-4.301,0.154-5.824,0.461c-1.523,0.308-2.727,0.691-3.613,1.152c-0.891,0.461-1.504,0.985-1.848,1.574
			s-0.516,1.229-0.516,1.919c0,1.357,0.371,2.311,1.105,2.86C219.481,60.305,220.56,60.58,221.981,60.58z"/>
		<path fill="#4D4D4D" d="M258.747,47.372l-12.711-19.068h11.342c0.838,0,1.451,0.108,1.846,0.323
			c0.393,0.216,0.742,0.577,1.047,1.085l7.041,11.685c0.152-0.456,0.344-0.9,0.57-1.332c0.229-0.431,0.482-0.888,0.762-1.37
			l5.025-8.792c0.328-0.584,0.697-0.996,1.104-1.237c0.404-0.241,0.9-0.361,1.484-0.361h10.809L274.353,46.84l13.246,20.934h-11.342
			c-0.838,0-1.51-0.203-2.018-0.609c-0.508-0.405-0.928-0.888-1.256-1.446l-7.041-12.104c-0.129,0.432-0.281,0.838-0.457,1.218
			c-0.178,0.381-0.369,0.736-0.572,1.066l-5.785,9.819c-0.305,0.533-0.711,1.009-1.217,1.428c-0.508,0.419-1.143,0.628-1.904,0.628
			h-10.504L258.747,47.372z"/>
		<path fill="#4D4D4D" d="M328.63,12.317v9.896h-22.762v14.045h18.955v9.934h-18.955v21.581h-12.939V12.317H328.63z"/>
		<path fill="#4D4D4D" d="M371.03,12.317v9.896h-22.762v14.045h18.955v9.934h-18.955v21.581h-12.939V12.317H371.03z"/>
	</g>
	<path fill="#F26522" d="M62.688,0c-1.382,0-2.779,0.088-4.187,0.269C45.688,1.914,35.57,10.787,31.727,22.268
		c4.172,3.057,7.129,7.752,7.84,13.286c0.708,5.534-0.971,10.823-4.235,14.834c5.087,7.8,13.376,13.174,22.764,14.489
		c2.302-6.896,8.376-12.227,16.068-13.203c0.847-0.109,1.688-0.162,2.519-0.162c3.692,0,7.198,1.046,10.194,2.886
		c6.123-6.811,9.354-16.147,8.098-25.947C92.866,12.008,78.844,0,62.688,0"/>
	<path fill="#F26522" d="M86.876,54.397c-5.036,5.602-12.029,9.493-20.087,10.523c-1.409,0.182-2.811,0.27-4.194,0.27
		c-1.522,0-3.024-0.106-4.5-0.313c-0.904,2.707-1.227,5.653-0.839,8.674c1.262,9.866,9.673,17.073,19.362,17.073
		c0.831,0,1.673-0.054,2.519-0.162c10.712-1.372,18.285-11.171,16.91-21.883C95.264,62.473,91.743,57.387,86.876,54.397"/>
	<path fill="#E62805" d="M76.682,51.512c-0.831,0-1.672,0.053-2.519,0.162c-7.692,0.977-13.767,6.308-16.068,13.203
		c1.476,0.207,2.978,0.313,4.5,0.313c1.384,0,2.785-0.088,4.194-0.27c8.058-1.03,15.051-4.922,20.087-10.523
		C83.88,52.558,80.374,51.512,76.682,51.512"/>
	<path fill="#F26522" d="M20.188,18.482c-0.827,0-1.664,0.053-2.507,0.16C6.971,20.019-0.602,29.816,0.772,40.525
		c1.264,9.874,9.688,17.072,19.386,17.072c0.823,0,1.657-0.052,2.495-0.158c5.179-0.667,9.622-3.299,12.678-7.052
		c-2.602-3.988-4.365-8.61-5.011-13.65c-0.646-5.038-0.104-9.956,1.406-14.47C28.46,19.872,24.447,18.482,20.188,18.482"/>
	<path fill="#E62805" d="M31.727,22.268c-1.511,4.514-2.053,9.432-1.406,14.47c0.646,5.04,2.409,9.662,5.011,13.65
		c3.265-4.011,4.943-9.3,4.235-14.834C38.855,30.02,35.898,25.324,31.727,22.268"/>
</g>
</svg>
